<svg width="11" height="21" viewBox="0 0 11 21" fill="none" xmlns="http://www.w3.org/2000/svg">
<path d="M10.2095 0.97429L7.66489 0.970215C4.8061 0.970215 2.95862 2.86207 2.95862 5.79022V8.01257H0.400117C0.179032 8.01257 0 8.19146 0 8.41213V11.6321C0 11.8527 0.179236 12.0314 0.400117 12.0314H2.95862V20.1563C2.95862 20.377 3.13765 20.5557 3.35874 20.5557H6.69685C6.91794 20.5557 7.09697 20.3768 7.09697 20.1563V12.0314H10.0885C10.3095 12.0314 10.4886 11.8527 10.4886 11.6321L10.4898 8.41213C10.4898 8.30617 10.4475 8.20471 10.3726 8.12972C10.2977 8.05474 10.1956 8.01257 10.0895 8.01257H7.09697V6.12866C7.09697 5.22317 7.31316 4.7635 8.49493 4.7635L10.2091 4.76289C10.43 4.76289 10.609 4.584 10.609 4.36353V1.37365C10.609 1.15339 10.4302 0.974697 10.2095 0.97429Z" fill="#E4A518"/>
</svg>
