<svg width="28" height="31" viewBox="0 0 28 31" fill="none" xmlns="http://www.w3.org/2000/svg">
<path d="M16.0904 4.00623H22.0542M25.2169 7.47852H2.67169C1.76807 7.47852 1 6.757 1 5.81001V2.20244C1 1.30055 1.72289 0.533936 2.67169 0.533936H25.2169C26.1205 0.533936 26.8886 1.25545 26.8886 2.20244V5.85511C26.8886 6.757 26.1657 7.47852 25.2169 7.47852V7.47852ZM7.68675 2.87886H7.14458H7.68675ZM7.68675 5.13359H7.14458H7.68675ZM9.08735 4.00623H8.54518H9.08735ZM9.9006 2.87886H10.4428H9.9006ZM9.9006 5.13359H10.4428H9.9006ZM11.7982 4.00623H11.256H11.7982ZM12.6566 2.87886H13.1988H12.6566ZM12.6566 5.13359H13.1988H12.6566Z" stroke="#333333" stroke-miterlimit="10"/>
<path d="M24.6747 4.00635C24.6747 3.82593 24.494 3.64551 24.3132 3.64551C24.1325 3.64551 23.9518 3.82593 23.9518 4.00635C23.9518 4.18677 24.1325 4.36719 24.3132 4.36719C24.494 4.36719 24.6747 4.18677 24.6747 4.00635Z" stroke="#333333" stroke-miterlimit="10"/>
<path d="M5.24701 1.70605H2.21991V6.26074H5.24701C5.06629 5.85488 4.5693 5.22354 4.5693 3.96085C4.5693 2.69816 5.02111 2.11192 5.24701 1.70605Z" fill="#57BC92"/>
<path d="M11.7982 13.0704H11.256M25.2169 16.5427H2.67169C1.76807 16.5427 1 15.8212 1 14.8742V11.2215C1 10.3196 1.72289 9.55298 2.67169 9.55298H25.2169C26.1205 9.55298 26.8886 10.2745 26.8886 11.2215V14.8742C26.8886 15.7761 26.1657 16.5427 25.2169 16.5427V16.5427ZM7.68675 11.943H7.14458H7.68675ZM7.68675 14.1978H7.14458H7.68675ZM9.08735 13.0704H8.54518H9.08735ZM9.9006 11.943H10.4428H9.9006ZM9.9006 14.1978H10.4428H9.9006Z" stroke="#333333" stroke-miterlimit="10"/>
<path d="M12.6566 11.9429H13.1988H12.6566ZM12.6566 14.1982H13.1988H12.6566Z" fill="#333333"/>
<path d="M12.6566 14.1982H13.1988M12.6566 11.9429H13.1988H12.6566Z" stroke="#333333" stroke-miterlimit="10"/>
<path d="M16.0904 13.0701H22.0542H16.0904ZM24.6747 13.0701C24.6747 12.8896 24.494 12.7092 24.3132 12.7092C24.1325 12.7092 23.9518 12.8896 23.9518 13.0701C23.9518 13.2505 24.1325 13.4309 24.3132 13.4309C24.494 13.4309 24.6747 13.2505 24.6747 13.0701Z" stroke="#333333" stroke-miterlimit="10"/>
<path d="M5.24701 10.7703H2.21991V15.325H5.24701C5.06629 14.9191 4.5693 14.2877 4.5693 13.0251C4.5693 11.8075 5.02111 11.1761 5.24701 10.7703Z" fill="#57BC92"/>
<path d="M16.0904 22.0896H22.0542M25.2169 25.562H2.67169C1.76807 25.562 1 24.8405 1 23.8934V20.2406C1 19.3387 1.72289 18.572 2.67169 18.572H25.2169C26.1205 18.572 26.8886 19.2936 26.8886 20.2406V23.9385C26.8886 24.8405 26.1657 25.562 25.2169 25.562V25.562ZM7.68675 20.9621H7.14458H7.68675ZM7.68675 23.217H7.14458H7.68675ZM9.08735 22.0896H8.54518H9.08735ZM9.9006 20.9621H10.4428H9.9006ZM9.9006 23.217H10.4428H9.9006ZM11.7982 22.0896H11.256H11.7982ZM12.6566 20.9621H13.1988H12.6566ZM12.6566 23.217H13.1988H12.6566Z" stroke="#333333" stroke-miterlimit="10"/>
<path d="M24.6747 22.0896C24.6747 21.9092 24.494 21.7288 24.3132 21.7288C24.1325 21.7288 23.9518 21.9092 23.9518 22.0896C23.9518 22.27 24.1325 22.4504 24.3132 22.4504C24.494 22.4504 24.6747 22.3151 24.6747 22.0896Z" stroke="#333333" stroke-miterlimit="10"/>
<path d="M5.24701 19.8357H2.21991V24.3904H5.24701C5.06629 23.9845 4.5693 23.3532 4.5693 22.0905C4.5693 20.8278 5.02111 20.2416 5.24701 19.8357Z" fill="#57BC92"/>
<path d="M24.5843 29.0794H15.2771M13.9669 25.562V27.7716V25.562ZM12.6114 27.7716H15.3223V30.4773H12.6114V27.7716ZM12.6114 29.0794H3.3042H12.6114Z" stroke="#333333" stroke-miterlimit="10"/>
</svg>
