<svg width="40" height="30" viewBox="0 0 40 30" fill="none" xmlns="http://www.w3.org/2000/svg">
<path d="M34.433 14.2998H38.807V28.262H14.4252V23.8961" stroke="#333333" stroke-width="1.5" stroke-miterlimit="10" stroke-linecap="round" stroke-linejoin="round"/>
<path d="M30.0157 19.4871V9.93457H34.433V23.896H10.0511V19.4871H30.0157Z" fill="#FF6D3B" stroke="#333333" stroke-width="1.5" stroke-miterlimit="10"/>
<path d="M30.0157 9.93457H34.433V23.896H10.0511V19.4871" stroke="#333333" stroke-width="1.5" stroke-miterlimit="10" stroke-linecap="round" stroke-linejoin="round"/>
<path d="M25.3819 5.52515H30.1023V19.4438H5.72046V14.7755" stroke="#333333" stroke-width="1.5" stroke-miterlimit="10" stroke-linecap="round" stroke-linejoin="round"/>
<path d="M25.3819 14.7756V0.813721H1V14.7756H25.3819ZM13.2126 2.67243C16.0709 2.67243 18.3661 4.96339 18.3661 7.81629C18.3661 10.6692 16.0709 12.9602 13.2126 12.9602C10.3543 12.9602 8.05905 10.6692 8.05905 7.81629C8.05905 4.96339 10.3543 2.67243 13.2126 2.67243Z" fill="#FF6D3B"/>
<path d="M21.2244 8.16199C21.2244 7.98907 21.3543 7.85938 21.5275 7.85938C21.7008 7.85938 21.8307 7.98907 21.8307 8.16199C21.8307 8.33491 21.7008 8.4646 21.5275 8.4646C21.3543 8.42137 21.2244 8.29168 21.2244 8.16199ZM4.59448 8.16199C4.59448 7.98907 4.7244 7.85938 4.89763 7.85938C5.07086 7.85938 5.20078 7.98907 5.20078 8.16199C5.20078 8.33491 5.07086 8.4646 4.89763 8.4646C4.7244 8.42137 4.59448 8.29168 4.59448 8.16199Z" stroke="#333333" stroke-width="1.5" stroke-miterlimit="10" stroke-linecap="round" stroke-linejoin="round"/>
<path d="M13.7323 4.61761C13.9055 4.61761 14.0787 4.66083 14.2519 4.70406C14.3819 4.74728 14.5551 4.79051 14.685 4.83373V5.61179C14.4252 5.52534 14.3386 5.48211 14.0787 5.43889C13.8189 5.39566 13.6023 5.35244 13.4291 5.35244C13.0826 5.35244 12.8228 5.43889 12.6496 5.61179C12.433 5.78469 12.3464 6.00081 12.3464 6.30339C12.3464 6.47629 12.3897 6.64919 12.433 6.77887C12.4763 6.90855 12.563 7.03822 12.6496 7.12467C12.7362 7.21112 12.996 7.3408 13.3425 7.5137L13.8622 7.72983C14.2952 7.94595 14.5984 8.16208 14.7283 8.42143C14.9015 8.68078 14.9882 9.02659 14.9882 9.41561C14.9882 9.80464 14.8582 10.1504 14.5984 10.453C14.3386 10.7556 14.122 10.8853 13.7323 10.9717V11.6633H12.9094V11.015C12.5197 11.015 12.2165 10.8853 12 10.7556V9.97754C12.1299 10.064 12.3031 10.1504 12.5197 10.1937C12.7362 10.2801 12.9527 10.3233 13.1693 10.3233C13.4724 10.3233 13.6889 10.2369 13.8622 10.064C14.0354 9.89109 14.122 9.67497 14.122 9.41561C14.122 9.24271 14.0787 9.11304 14.0354 8.98336C13.9921 8.85369 13.9055 8.72401 13.7756 8.63756C13.6456 8.55111 13.4724 8.42143 13.126 8.29176L12.7362 8.11886C12.3031 7.90273 11.9567 7.64338 11.7834 7.38402C11.5669 7.08145 11.4803 6.69242 11.4803 6.26017C11.4803 5.87114 11.6102 5.52534 11.87 5.26598C12.1299 4.96341 12.433 4.83373 12.9094 4.74728V4.01245H13.7323V4.61761Z" fill="#333333"/>
<path d="M1.00259 14.7908L1.00259 0.829345L25.3845 0.829345V14.7908L1.00259 14.7908Z" stroke="#333333" stroke-width="1.5" stroke-miterlimit="10" stroke-linecap="round" stroke-linejoin="round"/>
</svg>
