<svg width="43" height="31" viewBox="0 0 43 31" fill="none" xmlns="http://www.w3.org/2000/svg">
<path d="M18.5584 24.466H23.6559C23.6559 24.466 23.5143 25.7851 23.7975 27.057C23.9863 28.0463 24.6943 28.8943 25.7799 29.4596C26.0631 29.6009 25.9215 29.9778 25.5911 29.9778H11.4784C11.1008 29.9778 10.9592 29.6009 11.2896 29.4596C12.3752 28.8943 13.0832 28.0463 13.272 27.057C13.508 25.7851 13.4136 24.466 13.4136 24.466H18.5584ZM18.8888 22.3461C18.8888 22.5346 18.7472 22.6759 18.5584 22.6759C18.3696 22.6759 18.228 22.5346 18.228 22.3461C18.228 22.1577 18.3696 22.0164 18.5584 22.0164C18.7472 22.0164 18.8888 22.1577 18.8888 22.3461Z" stroke="#333333" stroke-miterlimit="10" stroke-linecap="round" stroke-linejoin="round"/>
<path d="M30.3583 24.4661H2.7464C1.8024 24.4661 1 23.7123 1 22.723V20.2261H7.79678" stroke="#333333" stroke-miterlimit="10" stroke-linecap="round" stroke-linejoin="round"/>
<path d="M30.3111 20.2732H1V2.41835C1 1.38192 1.8496 0.533936 2.888 0.533936H34.1815C35.2199 0.533936 36.0695 1.38192 36.0695 2.41835V11.0867" stroke="#333333" stroke-miterlimit="10" stroke-linecap="round" stroke-linejoin="round"/>
<path d="M40.6479 26.209H31.4911" stroke="#333333" stroke-miterlimit="10"/>
<path d="M40.9311 29.9309H31.2079C30.7359 29.9309 30.3111 29.554 30.3111 29.0358V11.9815C30.3111 11.5104 30.6887 11.0864 31.2079 11.0864H40.9311C41.4031 11.0864 41.8279 11.4633 41.8279 11.9815V29.0358C41.7807 29.554 41.4031 29.9309 40.9311 29.9309V29.9309Z" stroke="#333333" stroke-miterlimit="10"/>
<path d="M36.3999 28.094C36.3999 27.9052 36.2583 27.8108 36.1167 27.8108C35.9279 27.8108 35.8335 27.9524 35.8335 28.094C35.8335 28.2828 35.9751 28.3772 36.1167 28.3772C36.2583 28.3772 36.3999 28.2356 36.3999 28.094V28.094Z" stroke="#333333" stroke-miterlimit="10"/>
<path d="M34.9367 13.0183H37.2023" stroke="#333333" stroke-miterlimit="10" stroke-linecap="round" stroke-linejoin="round"/>
<path d="M24.6471 12.7826L29.6503 6.18704L24.6471 12.7826ZM20.5407 10.4741L22.5703 12.8297L20.5407 10.4741ZM16.1512 13.0653L18.3696 10.4741L16.1512 13.0653ZM12.1864 10.5213L14.1216 13.0181L12.1864 10.5213ZM7.98558 13.1124L10.0152 10.4741L7.98558 13.1124ZM12.7056 9.53193C12.7056 8.63682 11.9976 7.93015 11.1008 7.93015C10.204 7.93015 9.49598 8.63682 9.49598 9.53193C9.49598 10.427 10.204 11.1337 11.1008 11.1337C11.9504 11.1337 12.7056 10.427 12.7056 9.53193ZM16.7648 14.1017C16.7648 13.2066 16.0568 12.4999 15.16 12.4999C14.2632 12.4999 13.5552 13.2066 13.5552 14.1017C13.5552 14.9968 14.2632 15.7035 15.16 15.7035C16.0568 15.7506 16.7648 14.9968 16.7648 14.1017ZM21.1071 9.53193C21.1071 8.63682 20.3991 7.93015 19.5024 7.93015C18.6056 7.93015 17.8976 8.63682 17.8976 9.53193C17.8976 10.427 18.6056 11.1337 19.5024 11.1337C20.3991 11.1337 21.1071 10.427 21.1071 9.53193ZM25.2135 13.7719C25.2135 12.8768 24.5055 12.1701 23.6087 12.1701C22.7119 12.1701 22.0039 12.8768 22.0039 13.7719C22.0039 14.667 22.7119 15.3737 23.6087 15.3737C24.5055 15.3737 25.2135 14.667 25.2135 13.7719ZM32.2935 5.1506C32.2935 4.25549 31.5855 3.54883 30.6887 3.54883C29.7919 3.54883 29.0839 4.25549 29.0839 5.1506C29.0839 6.04571 29.7919 6.75238 30.6887 6.75238C31.5855 6.75238 32.2935 6.04571 32.2935 5.1506ZM8.59918 14.1017C8.59918 13.2066 7.89118 12.4999 6.99438 12.4999C6.09759 12.4999 5.38959 13.2066 5.38959 14.1017C5.38959 14.9968 6.09759 15.7035 6.99438 15.7035C7.89118 15.7506 8.59918 14.9968 8.59918 14.1017Z" stroke="#FFA34E" stroke-miterlimit="10"/>
</svg>
