<svg width="32" height="30" viewBox="0 0 32 30" fill="none" xmlns="http://www.w3.org/2000/svg">
<path d="M16.0511 21.4174V25.8655M12.015 19.3193H29.7568V2.82793H2.3033V19.3193H12.015ZM30.0931 2.82793H2.00901C1.46246 2.82793 1 2.36634 1 1.82083C1 1.27531 1.46246 0.813721 2.00901 0.813721H30.0931C30.6396 0.813721 31.1021 1.27531 31.1021 1.82083C31.1021 2.36634 30.6396 2.82793 30.0931 2.82793ZM18.7417 19.3193V19.7809C18.7417 20.6621 18.027 21.4174 17.1021 21.4174H15C14.1171 21.4174 13.3604 20.7041 13.3604 19.7809V19.3193H18.7417Z" stroke="#333333" stroke-miterlimit="10" stroke-linecap="round"/>
<path d="M16.1827 25.8655C17.8643 25.8655 19.2883 26.5371 20.4655 27.6704C20.4655 27.6704 21.012 28.258 21.4324 28.7617M16.0511 25.8655C14.3694 25.8655 12.8138 26.5371 11.6366 27.6704C11.6366 27.6704 11.0901 28.258 10.6697 28.7617L11.8649 27.4605L12.982 26.6696L16.0511 25.8655Z" stroke="#333333" stroke-miterlimit="10" stroke-linecap="round" stroke-linejoin="round"/>
<path d="M26.015 6.64648L25.8048 9.24819M15.1262 10.5071L17.2283 13.3186L26.015 6.64648L15.1262 10.5071Z" stroke="#00A0E4" stroke-miterlimit="10" stroke-linecap="round"/>
<path d="M5.96094 15.7107L14.7057 9.03882" stroke="#00A0E4" stroke-miterlimit="10" stroke-dasharray="3 3"/>
<path d="M26.015 6.64723L23.3243 6.22681" stroke="#00A0E4" stroke-miterlimit="10" stroke-linecap="round"/>
</svg>
