<svg width="113" height="113" viewBox="0 0 113 113" fill="none" xmlns="http://www.w3.org/2000/svg">
<g filter="url(#filter0_d_803_108)">
<circle cx="56.5" cy="45.5" r="38.5" fill="#E4A518" fill-opacity="0.78"/>
</g>
<path d="M84.9916 38.5702L71.6742 25.9046C71.0411 25.3034 70.2058 24.9841 69.3261 25.0006C68.4467 25.0187 67.6289 25.3729 67.0235 25.9975L62.6218 30.5326C62.0349 31.1432 62.0576 32.1109 62.6689 32.6867L63.0276 33.0278L61.2209 34.4545C61.1758 34.4522 61.1248 34.4499 61.0664 34.4479C58.2451 34.3612 56.1504 34.8233 54.8406 35.8235L54.6328 35.9824L49.6694 33.5649L50.3276 32.9389C50.6263 32.6577 50.7957 32.2777 50.8048 31.8688C50.8137 31.4596 50.6608 31.072 50.375 30.7786L45.9768 26.2467C45.3712 25.6217 44.5534 25.2677 43.6739 25.2494C42.7899 25.2284 41.9588 25.5521 41.3252 26.1539L28.0087 38.8187C26.7014 40.06 26.6591 42.124 27.9151 43.4203L32.3145 47.953C32.6159 48.2629 33.0202 48.4191 33.4259 48.4191C33.8102 48.4191 34.1958 48.2789 34.4961 47.9961L35.0179 47.4998C35.3869 49.8214 36.0211 52.1654 37.5159 53.8185L37.3306 54.0169C35.751 55.7122 36.2424 57.974 37.5068 59.2415C38.2038 59.9404 39.0511 60.3046 39.9047 60.3309C39.7907 61.4137 40.2925 62.4971 41.0973 63.2516C41.8035 63.9136 42.7478 64.338 43.7083 64.3379C43.947 64.3379 44.1868 64.3106 44.4243 64.2553C44.5594 65.0235 44.9648 65.754 45.5161 66.3005C46.1782 66.957 47.1101 67.4145 48.1025 67.4145C48.204 67.4145 48.3062 67.4095 48.4088 67.3997C48.4221 67.5882 48.4517 67.78 48.5 67.974C48.8369 69.3284 49.9468 70.4672 51.2619 70.8077C51.4815 70.8646 51.7647 70.9131 52.0915 70.9131C52.8554 70.9131 53.8578 70.6482 54.8457 69.6071L55.8139 68.5882L57.2299 69.6644C58.1565 70.3689 59.0755 70.6563 59.9006 70.6563C60.9367 70.6563 61.825 70.203 62.3938 69.5529C62.9344 68.9351 63.2562 68.0582 63.1369 67.1206C64.2252 67.1754 65.2517 66.7605 65.9146 66.0693C66.4052 65.5579 66.7253 64.8614 66.7195 64.0978C67.8472 64.2152 68.8317 63.7393 69.4406 63.0253C70.1419 62.203 70.4553 60.9776 70.057 59.8146C71.0976 59.5926 72.0516 58.9415 72.6602 57.9624C73.3434 56.8633 73.5952 55.225 72.5502 53.6066C74.1149 52.7537 76.1651 51.0513 78.4314 47.6786L78.507 47.7502C78.8053 48.0311 79.1892 48.1706 79.5727 48.1706C79.9786 48.1706 80.3839 48.0141 80.6862 47.7034L85.0855 43.1709C86.3407 41.875 86.2984 39.811 84.9916 38.5702ZM38.7467 58.0324C38.052 57.3359 37.7134 56.1474 38.611 55.1842L40.1235 53.5643C40.7421 52.9004 41.4189 52.6288 42.0816 52.7787C42.7765 52.9359 43.3956 53.5375 43.6222 54.2759C43.7314 54.6317 43.8294 55.3181 43.2583 55.9165C43.2576 55.9171 43.2571 55.9179 43.2564 55.9186L41.1357 58.1446C40.2431 58.9328 39.3166 58.6035 38.7467 58.0324ZM44.7962 62.1134C43.9033 63.0392 42.8043 62.479 42.2956 62.002C42.1636 61.8782 41.0341 60.7617 42.0401 59.7069C42.0403 59.7068 42.0404 59.7067 42.0405 59.7066L45.881 55.6753C46.3582 55.1741 46.8489 55.0295 47.2562 55.0295C47.4075 55.0295 47.5474 55.0496 47.6706 55.0785C48.3558 55.2398 48.9451 55.7791 49.1371 56.4205C49.3158 57.0178 49.1292 57.6249 48.5977 58.1761L47.7873 59.0155C47.7461 59.0563 47.7056 59.0993 47.6652 59.142L44.7962 62.1134ZM49.3234 65.1268C49.316 65.1331 49.3082 65.1385 49.3009 65.145C49.2859 65.1586 49.2723 65.1731 49.2575 65.1869C48.0632 66.2704 46.9598 65.2936 46.7491 65.0847C46.2538 64.5936 45.7675 63.6034 46.4579 62.8884C46.4656 62.8804 46.4721 62.8718 46.4794 62.8638L48.8255 60.4336C48.8389 60.4205 48.8523 60.4077 48.865 60.3936C48.8732 60.3844 48.8816 60.376 48.8899 60.3669L49.0416 60.2098C49.6253 59.6386 50.2629 59.413 50.8982 59.5593C51.5979 59.7202 52.2001 60.3081 52.3967 61.0226C52.5183 61.4645 52.5264 62.1199 51.8738 62.733L51.5874 63.0017C51.5803 63.008 51.573 63.0136 51.5659 63.0198C51.5473 63.0362 51.5302 63.0537 51.5133 63.0713L49.3234 65.1268ZM54.8171 67.1221L53.5757 68.4286C52.9698 69.0669 52.3391 69.3064 51.703 69.142C51.0099 68.9624 50.374 68.2983 50.1909 67.5627C50.1107 67.2406 50.0927 66.7908 50.4418 66.4494C50.4578 66.4348 50.4739 66.4211 50.4899 66.4061L52.7485 64.2861C53.4288 63.706 54.3839 63.9879 54.9439 64.555C55.2204 64.8348 56.0282 65.8467 54.8171 67.1221ZM71.1762 57.0606C70.7349 57.7705 69.8109 58.3389 68.8465 58.1325L65.5249 55.0757C65.1728 54.7517 64.6218 54.7713 64.2941 55.1193C63.9665 55.4674 63.9862 56.0122 64.3382 56.3362L67.8193 59.5397C67.8227 59.5428 67.8263 59.5453 67.8296 59.5482C67.8311 59.5496 67.8321 59.5512 67.8336 59.5525C68.6925 60.3086 68.6223 61.3135 68.1089 61.9154C67.5263 62.5986 66.6148 62.5642 65.6675 61.8263L62.2137 58.6478C61.8615 58.3236 61.3106 58.3433 60.9828 58.6914C60.6552 59.0394 60.6749 59.5842 61.027 59.9083L64.483 63.0889C65.0831 63.7338 65.1434 64.371 64.6506 64.8847C64.0648 65.4954 62.8968 65.6924 61.8862 64.8541C61.8735 64.8436 61.8601 64.8345 61.847 64.8248L60.2603 63.367C59.908 63.0433 59.357 63.0632 59.0296 63.4116C58.7022 63.7599 58.7224 64.3047 59.0747 64.6284L60.7919 66.2062C61.6558 67.0912 61.4927 67.9506 61.0763 68.4266C60.5555 69.0214 59.4926 69.2128 58.2911 68.2998L56.8594 67.2116C57.5765 65.755 57.122 64.2958 56.1899 63.3522C55.6452 62.801 54.8976 62.3988 54.1029 62.2765C54.2409 61.7298 54.2369 61.1509 54.0772 60.5709C53.7115 59.2426 52.6185 58.1873 51.2927 57.8825C51.1282 57.8447 50.9633 57.8195 50.7985 57.8063C50.9851 57.1948 50.9935 56.5549 50.8071 55.9322C50.4383 54.7 49.3654 53.7077 48.0738 53.4038C47.1105 53.1774 46.1454 53.3591 45.3228 53.9007C45.3116 53.8593 45.3015 53.8179 45.2888 53.7764C44.8804 52.446 43.774 51.3957 42.4701 51.1007C41.1821 50.8095 39.8941 51.27 38.8432 52.3975L38.7034 52.5472C37.4772 51.1052 36.9357 48.8723 36.5675 46.0265L40.2402 42.5336C40.5868 42.204 40.5975 41.659 40.264 41.3163C39.9308 40.9736 39.3795 40.963 39.0328 41.2927L35.0915 45.041C35.061 45.0663 35.0325 45.0936 35.0058 45.1226L33.4327 46.6187L29.1722 42.2292C28.5802 41.6182 28.5996 40.6456 29.2156 40.0606L42.5321 27.3954C42.8295 27.1131 43.2231 26.962 43.6376 26.9709C44.0516 26.9794 44.4356 27.1453 44.7197 27.4383L48.9815 31.8293L41.7889 38.6703C41.4423 39 41.4316 39.5451 41.7651 39.8876C42.0985 40.2303 42.6497 40.2408 42.9964 39.9112L48.3345 34.834L53.0992 37.1547L49.7331 39.7284C45.6972 42.8157 46.9133 45.5944 47.3822 46.3724C48.182 47.7 49.6685 48.4664 51.1849 48.4664C51.7761 48.4664 52.3718 48.3498 52.9331 48.1047C52.9666 48.0901 52.9991 48.0735 53.0304 48.0548L56.5652 45.9503L61.3729 44.8648L70.5635 53.8939C71.992 55.3435 71.4681 56.5911 71.1762 57.0606ZM83.8282 41.9791L79.5669 46.3694L78.9137 45.7507C78.8891 45.7243 78.8627 45.6993 78.8345 45.6757L72.8326 39.9914C72.485 39.6622 71.934 39.6744 71.6012 40.0174C71.2685 40.3608 71.2804 40.9058 71.6276 41.2347L77.1516 46.4666C74.7237 50.1554 72.644 51.6577 71.3784 52.2671L62.2603 43.3092C62.2579 43.3068 62.2554 43.305 62.2529 43.3026C62.2398 43.29 62.2261 43.2781 62.2122 43.2664C62.2037 43.2592 62.1954 43.2519 62.1868 43.2451C62.1741 43.2352 62.1609 43.2261 62.1477 43.2168C62.1372 43.2095 62.1269 43.2019 62.1162 43.1951C62.1042 43.1874 62.0916 43.1807 62.0793 43.1737C62.0671 43.1667 62.055 43.1594 62.0424 43.1531C62.0295 43.1467 62.0163 43.1411 62.003 43.1353C61.9908 43.1298 61.9788 43.124 61.9664 43.1192C61.9502 43.1129 61.9338 43.1077 61.9172 43.1023C61.9075 43.0993 61.8979 43.0956 61.8881 43.0928C61.8679 43.087 61.8474 43.0825 61.8268 43.0782C61.8204 43.0768 61.814 43.0751 61.8077 43.0739C61.786 43.0698 61.7639 43.067 61.7419 43.0646C61.7361 43.0641 61.7305 43.063 61.7247 43.0625C61.7047 43.0606 61.6844 43.0602 61.664 43.0598C61.6557 43.0597 61.6474 43.0592 61.6391 43.0592C61.6224 43.0593 61.6056 43.0605 61.5887 43.0617C61.5763 43.0625 61.564 43.063 61.5515 43.0644C61.5384 43.0659 61.5252 43.068 61.5121 43.0701C61.4957 43.0726 61.4795 43.0751 61.4634 43.0786C61.4598 43.0794 61.4562 43.0797 61.4526 43.0805L56.0416 44.3023C55.9515 44.3227 55.8653 44.357 55.7862 44.4041L52.1828 46.5493C51.0192 47.0276 49.5169 46.5507 48.8784 45.4911C48.1213 44.2345 48.8392 42.5892 50.7988 41.0903L55.2716 37.6705C55.2794 37.6645 55.2875 37.6589 55.2951 37.6525L55.9058 37.1855C56.8593 36.4572 58.6738 36.0961 61.0118 36.1687C61.088 36.1711 61.1488 36.1746 61.1987 36.1774C61.7073 36.2073 61.9108 36.1146 62.3023 35.8041L64.2937 34.2316L68.7628 38.4823C69.1094 38.8121 69.6607 38.8013 69.9942 38.4589C70.3276 38.1162 70.3169 37.5712 69.9704 37.2414L64.0187 31.5803L68.281 27.1888C68.5646 26.8961 68.9486 26.7304 69.3627 26.7218C69.3739 26.7216 69.3849 26.7215 69.3962 26.7215C69.7993 26.7215 70.1788 26.8715 70.4675 27.1458L83.785 39.8114C84.4003 40.3961 84.4197 41.3687 83.8282 41.9791Z" fill="white"/>
<defs>
<filter id="filter0_d_803_108" x="0" y="0" width="113" height="113" filterUnits="userSpaceOnUse" color-interpolation-filters="sRGB">
<feFlood flood-opacity="0" result="BackgroundImageFix"/>
<feColorMatrix in="SourceAlpha" type="matrix" values="0 0 0 0 0 0 0 0 0 0 0 0 0 0 0 0 0 0 127 0" result="hardAlpha"/>
<feOffset dy="11"/>
<feGaussianBlur stdDeviation="9"/>
<feColorMatrix type="matrix" values="0 0 0 0 0 0 0 0 0 0 0 0 0 0 0 0 0 0 0.04 0"/>
<feBlend mode="normal" in2="BackgroundImageFix" result="effect1_dropShadow_803_108"/>
<feBlend mode="normal" in="SourceGraphic" in2="effect1_dropShadow_803_108" result="shape"/>
</filter>
</defs>
</svg>
