<svg width="21" height="21" viewBox="0 0 21 21" fill="none" xmlns="http://www.w3.org/2000/svg">
<path d="M20.2049 20.5308V20.5299H20.21V13.132C20.21 9.51296 19.4294 6.7251 15.1903 6.7251C13.1525 6.7251 11.7849 7.84125 11.2266 8.89941H11.1677V7.06297H7.14844V20.5299H11.3336V13.8616C11.3336 12.1058 11.6671 10.4081 13.8455 10.4081C15.992 10.4081 16.024 12.4118 16.024 13.9742V20.5308H20.2049Z" fill="#E4A518"/>
<path d="M0.333466 7.06348H4.52368V20.5308H0.333466V7.06348Z" fill="#E4A518"/>
<path d="M2.42688 0.358887C1.08713 0.358887 0 1.44405 0 2.78138C0 4.11871 1.08713 5.22656 2.42688 5.22656C3.76663 5.22656 4.85376 4.11871 4.85376 2.78138C4.85292 1.44405 3.76579 0.358887 2.42688 0.358887V0.358887Z" fill="#E4A518"/>
</svg>
