<svg width="113" height="113" viewBox="0 0 113 113" fill="none" xmlns="http://www.w3.org/2000/svg">
<g filter="url(#filter0_d_13_564)">
<circle cx="56.5" cy="45.5" r="38.5" fill="#E4A518" fill-opacity="0.78"/>
</g>
<path d="M74.3699 56.9928C74.251 56.9925 74.1342 56.9608 74.0313 56.9007C73.9284 56.8406 73.8429 56.7543 73.7836 56.6504C73.7242 56.5465 73.693 56.4287 73.693 56.3089C73.6931 56.189 73.7244 56.0712 73.7839 55.9674C75.2587 53.3891 76.1668 50.5215 76.4468 47.5588C76.7268 44.5961 76.3722 41.6073 75.4069 38.7947C74.4416 35.9821 72.8882 33.4112 70.8518 31.2562C68.8153 29.1011 66.3434 27.412 63.6032 26.3032C63.4362 26.2358 63.3026 26.1042 63.2318 25.9375C63.161 25.7708 63.1589 25.5825 63.2258 25.4142C63.2927 25.2459 63.4232 25.1112 63.5886 25.0399C63.754 24.9685 63.9408 24.9663 64.1078 25.0338C67.0286 26.2154 69.6636 28.0156 71.8343 30.3125C74.005 32.6095 75.6608 35.3497 76.6897 38.3476C77.7187 41.3456 78.0966 44.5313 77.7981 47.6892C77.4995 50.8471 76.5314 53.9036 74.9593 56.6517C74.8995 56.7558 74.8135 56.8421 74.71 56.902C74.6065 56.9619 74.4892 56.9932 74.3699 56.9928Z" fill="white"/>
<path d="M55.9509 67.4871C52.1111 67.4793 48.3403 66.4574 45.0147 64.5235C41.689 62.5895 38.9245 59.811 36.9969 56.4651C36.948 56.3875 36.9152 56.3009 36.9004 56.2102C36.8856 56.1196 36.8891 56.0269 36.9108 55.9377C36.9325 55.8485 36.9719 55.7646 37.0266 55.6911C37.0813 55.6177 37.1502 55.5561 37.2291 55.5101C37.308 55.4641 37.3953 55.4347 37.4858 55.4237C37.5763 55.4126 37.6681 55.4201 37.7557 55.4457C37.8432 55.4713 37.9247 55.5144 37.9953 55.5726C38.0658 55.6307 38.124 55.7027 38.1663 55.784C39.7245 58.5022 41.8761 60.8275 44.4582 62.5838C47.0404 64.3402 49.9853 65.4816 53.0701 65.9215C56.1548 66.3615 59.2985 66.0885 62.263 65.1233C65.2275 64.158 67.9352 62.5258 70.181 60.3502C70.3102 60.2249 70.4834 60.1565 70.6627 60.16C70.8419 60.1634 71.0124 60.2384 71.1367 60.3686C71.2611 60.4987 71.329 60.6733 71.3256 60.8539C71.3221 61.0344 71.2477 61.2063 71.1185 61.3315C67.0482 65.2905 61.6085 67.4982 55.9509 67.4871Z" fill="white"/>
<path d="M35.2034 50.9585C35.0498 50.9584 34.9008 50.9063 34.7808 50.8106C34.6608 50.7149 34.5769 50.5813 34.543 50.4317C33.8151 47.2255 33.8191 43.8968 34.5547 40.6923C35.2902 37.4878 36.7386 34.4895 38.7924 31.9197C40.8462 29.3499 43.4528 27.2743 46.4191 25.8468C49.3854 24.4193 52.6355 23.6764 55.9284 23.6731C56.1081 23.6731 56.2803 23.7443 56.4073 23.8711C56.5344 23.998 56.6057 24.1699 56.6057 24.3493C56.6057 24.5286 56.5344 24.7006 56.4073 24.8274C56.2803 24.9542 56.1081 25.0255 55.9284 25.0255C52.8391 25.0283 49.79 25.7253 47.007 27.0646C44.2241 28.4039 41.7788 30.3512 39.8522 32.7623C37.9256 35.1734 36.5672 37.9864 35.8775 40.9929C35.1879 43.9994 35.1848 47.1223 35.8685 50.1302C35.8885 50.2169 35.8912 50.3068 35.8763 50.3946C35.8615 50.4824 35.8294 50.5664 35.7819 50.6418C35.7345 50.7172 35.6726 50.7825 35.5998 50.8339C35.527 50.8854 35.4448 50.922 35.3578 50.9416C35.3071 50.953 35.2553 50.9587 35.2034 50.9585Z" fill="white"/>
<path d="M52.3011 28.3955C52.1648 28.3956 52.0315 28.3563 51.9181 28.2826C51.8047 28.2088 51.7163 28.1039 51.664 27.9812C51.6118 27.8585 51.5981 27.7234 51.6246 27.5931C51.6512 27.4627 51.7168 27.343 51.8132 27.249L54.9396 24.1965L51.8132 21.1466C51.7492 21.0842 51.6985 21.0101 51.6639 20.9286C51.6293 20.8471 51.6115 20.7597 51.6115 20.6715C51.6115 20.5833 51.6294 20.496 51.6641 20.4145C51.6987 20.333 51.7495 20.2589 51.8136 20.1966C51.8776 20.1342 51.9536 20.0848 52.0372 20.051C52.1208 20.0173 52.2105 20 52.301 20C52.3915 20 52.4811 20.0174 52.5647 20.0512C52.6483 20.085 52.7243 20.1345 52.7883 20.1969L56.404 23.7216C56.5331 23.8476 56.6057 24.0184 56.6057 24.1965C56.6057 24.3746 56.5331 24.5454 56.404 24.6713L52.7883 28.194C52.7247 28.2572 52.6489 28.3076 52.5653 28.3422C52.4817 28.3767 52.3919 28.3949 52.3011 28.3955Z" fill="white"/>
<path d="M36.2401 61.7153C36.182 61.7153 36.1241 61.7075 36.0679 61.692C35.9839 61.6686 35.9052 61.6283 35.8362 61.5734C35.7672 61.5185 35.7093 61.45 35.6658 61.3719C35.6223 61.2937 35.5941 61.2075 35.5828 61.118C35.5715 61.0286 35.5772 60.9377 35.5998 60.8506L36.8711 55.9271C36.9166 55.7517 37.0272 55.6022 37.1787 55.5112C37.3302 55.4202 37.5103 55.3951 37.6796 55.4415L42.426 56.7609C42.5124 56.7819 42.5938 56.8207 42.6655 56.875C42.7371 56.9293 42.7975 56.9979 42.8431 57.0768C42.8887 57.1558 42.9185 57.2434 42.9308 57.3346C42.943 57.4257 42.9375 57.5185 42.9146 57.6073C42.8917 57.6962 42.8517 57.7794 42.7972 57.852C42.7427 57.9246 42.6746 57.985 42.5971 58.0298C42.5196 58.0746 42.4342 58.1027 42.346 58.1126C42.2578 58.1225 42.1686 58.1139 42.0837 58.0873L37.9783 56.9464L36.8784 61.205C36.841 61.3511 36.7581 61.4802 36.6427 61.5725C36.5273 61.6648 36.3858 61.715 36.2401 61.7153Z" fill="white"/>
<path d="M74.3848 56.9928C74.2333 56.9927 74.0862 56.9426 73.9661 56.8503C73.846 56.758 73.7597 56.6287 73.7205 56.4823L72.3953 51.5422C72.3545 51.368 72.3831 51.1847 72.4749 51.0312C72.5668 50.8776 72.7148 50.7659 72.8875 50.7196C73.0602 50.6733 73.2442 50.6961 73.4004 50.7832C73.5567 50.8703 73.6729 51.0147 73.7246 51.1861L74.8687 55.4572L79.1368 54.3123C79.3128 54.266 79.5 54.2914 79.6574 54.3829C79.8148 54.4744 79.9295 54.6246 79.9766 54.8005C80.0237 54.9765 79.9992 55.1639 79.9085 55.3219C79.8178 55.4798 79.6683 55.5953 79.4927 55.6432L74.5582 56.9666C74.5018 56.9828 74.4435 56.9916 74.3848 56.9928Z" fill="white"/>
<path d="M56.3429 58.8293C53.6915 58.8293 51.0996 58.0446 48.895 56.5743C46.6905 55.1041 44.9722 53.0144 43.9576 50.5694C42.9429 48.1245 42.6775 45.4341 43.1947 42.8386C43.712 40.2431 44.9888 37.8589 46.8636 35.9876C48.7384 34.1164 51.1271 32.842 53.7275 32.3257C56.328 31.8094 59.0234 32.0744 61.473 33.0871C63.9226 34.0999 66.0163 35.8149 67.4893 38.0152C68.9624 40.2156 69.7486 42.8026 69.7486 45.449C69.7446 48.9965 68.331 52.3975 65.8178 54.906C63.3046 57.4144 59.8971 58.8254 56.3429 58.8293ZM56.3429 33.4293C53.9611 33.4293 51.6328 34.1342 49.6524 35.455C47.6721 36.7757 46.1286 38.6529 45.2171 40.8492C44.3056 43.0456 44.0671 45.4623 44.5318 47.7939C44.9965 50.1255 46.1434 52.2672 47.8276 53.9482C49.5117 55.6292 51.6575 56.7739 53.9935 57.2377C56.3295 57.7015 58.7508 57.4634 60.9513 56.5537C63.1518 55.644 65.0326 54.1034 66.3558 52.1268C67.679 50.1501 68.3853 47.8262 68.3853 45.449C68.3815 42.2623 67.1116 39.2073 64.854 36.954C62.5964 34.7007 59.5356 33.4331 56.3429 33.4293Z" fill="white"/>
<path d="M56.2114 45.9736C55.4576 45.9736 54.7207 45.7505 54.0939 45.3325C53.4671 44.9145 52.9786 44.3204 52.6902 43.6253C52.4017 42.9302 52.3262 42.1653 52.4733 41.4273C52.6203 40.6894 52.9833 40.0116 53.5164 39.4796C54.0494 38.9475 54.7285 38.5852 55.4679 38.4385C56.2072 38.2917 56.9735 38.367 57.67 38.6549C58.3664 38.9429 58.9617 39.4304 59.3805 40.056C59.7993 40.6816 60.0228 41.4171 60.0228 42.1695C60.0228 42.3489 59.9514 42.5209 59.8244 42.6477C59.6973 42.7745 59.525 42.8458 59.3452 42.8458C59.1655 42.8458 58.9932 42.7745 58.8661 42.6477C58.739 42.5209 58.6677 42.3489 58.6677 42.1695C58.6677 41.6846 58.5236 41.2106 58.2537 40.8075C57.9838 40.4043 57.6002 40.0901 57.1514 39.9046C56.7026 39.719 56.2087 39.6705 55.7322 39.765C55.2558 39.8596 54.8181 40.0931 54.4746 40.436C54.1311 40.7788 53.8972 41.2157 53.8024 41.6912C53.7076 42.1668 53.7563 42.6597 53.9422 43.1077C54.1281 43.5556 54.4429 43.9385 54.8468 44.2079C55.2507 44.4773 55.7256 44.6211 56.2114 44.6211C56.3911 44.6211 56.5635 44.6923 56.6905 44.8191C56.8176 44.946 56.889 45.118 56.889 45.2973C56.889 45.4767 56.8176 45.6487 56.6905 45.7756C56.5635 45.9024 56.3911 45.9736 56.2114 45.9736Z" fill="white"/>
<path d="M56.2114 52.2703C55.2009 52.2692 54.2321 51.868 53.5175 51.1549C52.803 50.4417 52.4011 49.4747 52.4 48.4661C52.4 48.2867 52.4714 48.1147 52.5985 47.9878C52.7256 47.861 52.8979 47.7898 53.0776 47.7898C53.2573 47.7898 53.4297 47.861 53.5567 47.9878C53.6838 48.1147 53.7552 48.2867 53.7552 48.4661C53.7552 48.9509 53.8992 49.4249 54.1691 49.8281C54.439 50.2313 54.8226 50.5455 55.2715 50.731C55.7203 50.9166 56.2142 50.9651 56.6906 50.8706C57.1671 50.776 57.6047 50.5425 57.9482 50.1996C58.2918 49.8567 58.5257 49.4199 58.6205 48.9443C58.7152 48.4688 58.6666 47.9759 58.4807 47.5279C58.2948 47.0799 57.98 46.697 57.576 46.4276C57.1721 46.1583 56.6972 46.0145 56.2114 46.0145C56.0317 46.0145 55.8594 45.9432 55.7323 45.8164C55.6052 45.6896 55.5338 45.5175 55.5338 45.3382C55.5338 45.1588 55.6052 44.9868 55.7323 44.8599C55.8594 44.7331 56.0317 44.6619 56.2114 44.6619C57.2223 44.6619 58.1917 45.0627 58.9065 45.7761C59.6213 46.4895 60.0228 47.4571 60.0228 48.4661C60.0228 49.475 59.6213 50.4426 58.9065 51.156C58.1917 51.8695 57.2223 52.2703 56.2114 52.2703Z" fill="white"/>
<path d="M56.2114 53.8445C56.0371 53.8445 55.87 53.7726 55.7467 53.6447C55.6235 53.5169 55.5543 53.3434 55.5543 53.1625V37.7353C55.5543 37.5544 55.6235 37.381 55.7467 37.2531C55.87 37.1252 56.0371 37.0533 56.2114 37.0533C56.3857 37.0533 56.5529 37.1252 56.6761 37.2531C56.7994 37.381 56.8686 37.5544 56.8686 37.7353V53.1625C56.8686 53.3434 56.7994 53.5169 56.6761 53.6447C56.5529 53.7726 56.3857 53.8445 56.2114 53.8445Z" fill="white"/>
<defs>
<filter id="filter0_d_13_564" x="0" y="0" width="113" height="113" filterUnits="userSpaceOnUse" color-interpolation-filters="sRGB">
<feFlood flood-opacity="0" result="BackgroundImageFix"/>
<feColorMatrix in="SourceAlpha" type="matrix" values="0 0 0 0 0 0 0 0 0 0 0 0 0 0 0 0 0 0 127 0" result="hardAlpha"/>
<feOffset dy="11"/>
<feGaussianBlur stdDeviation="9"/>
<feColorMatrix type="matrix" values="0 0 0 0 0 0 0 0 0 0 0 0 0 0 0 0 0 0 0.04 0"/>
<feBlend mode="normal" in2="BackgroundImageFix" result="effect1_dropShadow_13_564"/>
<feBlend mode="normal" in="SourceGraphic" in2="effect1_dropShadow_13_564" result="shape"/>
</filter>
</defs>
</svg>
