<svg width="23" height="23" viewBox="0 0 23 23" fill="none" xmlns="http://www.w3.org/2000/svg">
<path d="M22.3423 3.1384C22.004 2.8001 21.455 2.79952 21.1167 3.13696L10.7176 13.489L6.96559 9.42168C6.64139 9.07043 6.09326 9.04766 5.74075 9.3712C5.38852 9.69478 5.36597 10.2422 5.69017 10.5937L10.0533 15.3231C10.213 15.4965 10.4367 15.5971 10.6725 15.602C10.6788 15.6023 10.6849 15.6023 10.691 15.6023C10.9201 15.6023 11.1405 15.5115 11.3029 15.35L22.3406 4.36204C22.6798 4.02464 22.6804 3.47669 22.3423 3.1384Z" fill="#E4A518"/>
<path d="M22.1331 10.6129C21.6544 10.6129 21.2663 11.0002 21.2663 11.4781C21.2663 16.8533 16.8854 21.2259 11.5 21.2259C6.11495 21.2259 1.73367 16.8533 1.73367 11.4781C1.73367 6.10333 6.11495 1.73038 11.5 1.73038C11.9788 1.73038 12.3669 1.34308 12.3669 0.86521C12.3669 0.387298 11.9788 0 11.5 0C5.15883 0 0 5.14903 0 11.4781C0 17.807 5.15883 22.9563 11.5 22.9563C17.8409 22.9563 23 17.807 23 11.4781C23 11.0003 22.612 10.6129 22.1331 10.6129Z" fill="#E4A518"/>
</svg>
