<svg width="113" height="113" viewBox="0 0 113 113" fill="none" xmlns="http://www.w3.org/2000/svg">
<g filter="url(#filter0_d_15_286)">
<circle cx="56.5" cy="45.5" r="38.5" fill="#E4A518" fill-opacity="0.78"/>
</g>
<path d="M68.3238 32.5832L70.4738 33.8221C70.5827 33.8849 70.7063 33.918 70.8321 33.918C70.9579 33.918 71.0815 33.8849 71.1905 33.8221L73.3405 32.5832C73.4494 32.5204 73.5399 32.4301 73.6028 32.3214C73.6657 32.2127 73.6988 32.0893 73.6988 31.9638V29.4845C73.6988 29.3589 73.6657 29.2356 73.6028 29.1268C73.5399 29.0181 73.4494 28.9278 73.3405 28.865L71.1905 27.6261C71.0815 27.5633 70.9579 27.5303 70.8321 27.5303C70.7063 27.5303 70.5827 27.5633 70.4738 27.6261L68.3238 28.8636C68.2148 28.9264 68.1244 29.0167 68.0615 29.1254C67.9986 29.2341 67.9655 29.3575 67.9655 29.4831V31.9609C67.965 32.0869 67.9978 32.2109 68.0608 32.3202C68.1237 32.4294 68.2144 32.5202 68.3238 32.5832ZM69.3988 29.8972L70.8321 29.0718L72.2655 29.8972V31.5496L70.8321 32.3751L69.3988 31.5496V29.8972Z" fill="white"/>
<path d="M77.2822 56.4739H74.7667C74.69 56.2593 74.6015 56.0492 74.5015 55.8444L76.286 54.0704C76.4203 53.9354 76.4956 53.7528 76.4956 53.5626C76.4956 53.3723 76.4203 53.1897 76.286 53.0547L74.2578 51.0303C74.1841 50.9594 74.0962 50.9049 73.9998 50.8704C73.9035 50.8359 73.8009 50.8221 73.6988 50.8301V47.8901H77.2822C77.4149 47.8916 77.5454 47.8555 77.6583 47.7858C77.7712 47.7161 77.862 47.6159 77.92 47.4967C77.9804 47.3779 78.0063 47.2447 77.9949 47.112C77.9835 46.9793 77.9352 46.8524 77.8555 46.7456L73.5555 41.0231C73.4882 40.9348 73.4015 40.8631 73.3021 40.8135C73.2027 40.7639 73.0933 40.7377 72.9821 40.737H68.3453L70.2803 37.4036C70.452 37.1219 70.6833 36.8811 70.9582 36.6982C71.2331 36.5153 71.5447 36.3947 71.8713 36.3449C72.7185 36.1948 73.5202 35.854 74.2156 35.3483C74.9111 34.8425 75.4818 34.1853 75.8847 33.4264C76.5633 32.1334 76.7261 30.6318 76.3406 29.2238C75.955 27.8158 75.0495 26.6057 73.8063 25.8369C72.7932 25.2207 71.6133 24.9337 70.4298 25.0157C69.2462 25.0976 68.1174 25.5444 67.1992 26.2944C66.281 27.0443 65.6189 28.0604 65.3043 29.2022C64.9896 30.3439 65.038 31.5551 65.4428 32.6682C65.5605 32.9712 65.6094 33.2964 65.5858 33.6205C65.5623 33.9446 65.4669 34.2595 65.3066 34.5423L61.7233 40.737H60.0821V38.591C60.0821 38.4013 60.0066 38.2193 59.8722 38.0852C59.7378 37.9511 59.5555 37.8757 59.3654 37.8757H58.6488V31.0158L59.8743 29.7998C59.9855 29.6861 60.0562 29.5392 60.0756 29.3815C60.095 29.2239 60.0621 29.0642 59.9818 28.9271L57.8318 25.3505C57.7689 25.2432 57.6788 25.1544 57.5706 25.0929C57.4625 25.0313 57.3399 24.9993 57.2154 25H55.7821C55.6576 24.9993 55.5351 25.0313 55.4269 25.0929C55.3187 25.1544 55.2286 25.2432 55.1658 25.3505L53.0158 28.9271C52.9355 29.0642 52.9025 29.2239 52.9219 29.3815C52.9413 29.5392 53.0121 29.6861 53.1233 29.7998L54.3488 31.0158V37.8757H53.6321C53.442 37.8757 53.2597 37.9511 53.1253 38.0852C52.9909 38.2193 52.9154 38.4013 52.9154 38.591V40.737H51.1596L47.6909 34.7355C47.5308 34.4526 47.4355 34.1377 47.4119 33.8137C47.3884 33.4896 47.4372 33.1643 47.5547 32.8613C47.8817 31.9607 47.977 30.9925 47.8317 30.0456C47.6864 29.0987 47.3053 28.2033 46.7233 27.4416C46.1413 26.6798 45.377 26.0761 44.5005 25.6858C43.6241 25.2955 42.6634 25.131 41.7067 25.2075C41.586 25.2174 41.4698 25.2576 41.3687 25.3242C41.2677 25.3909 41.1852 25.4819 41.1287 25.5889C41.0723 25.6959 41.0438 25.8153 41.0458 25.9362C41.0479 26.0571 41.0805 26.1755 41.1406 26.2804L43.2189 29.8713L42.4521 31.4092L40.7321 31.3019L38.6609 27.7111C38.6005 27.6057 38.5142 27.5176 38.4101 27.455C38.306 27.3924 38.1875 27.3574 38.066 27.3534C37.9455 27.3476 37.8255 27.3728 37.7175 27.4267C37.6096 27.4805 37.5174 27.5612 37.4497 27.661C36.8653 28.5034 36.5184 29.4871 36.4453 30.5091C36.3722 31.5312 36.5755 32.554 37.034 33.4708C37.4926 34.3876 38.1894 35.1645 39.0518 35.7205C39.9141 36.2764 40.9103 36.5909 41.9361 36.631C42.2845 36.6574 42.6207 36.7708 42.9138 36.9608C43.2068 37.1508 43.4473 37.4113 43.6131 37.7183L45.3617 40.737H40.0154C39.9043 40.7377 39.7948 40.7639 39.6954 40.8135C39.596 40.8631 39.5093 40.9348 39.4421 41.0231L35.142 46.7456C35.0623 46.8524 35.014 46.9793 35.0026 47.112C34.9912 47.2447 35.0172 47.3779 35.0775 47.4967C35.1356 47.6159 35.2263 47.7161 35.3392 47.7858C35.4522 47.8555 35.5826 47.8916 35.7154 47.8901H39.2987V64.3424C39.2987 64.5321 39.3742 64.714 39.5086 64.8482C39.643 64.9823 39.8253 65.0577 40.0154 65.0577H61.9598L63.1065 66.2093C63.2418 66.3434 63.4247 66.4186 63.6153 66.4186C63.8059 66.4186 63.9888 66.3434 64.1241 66.2093L65.9015 64.4282C66.1066 64.528 66.3172 64.6164 66.5321 64.6929V67.2036C66.5321 67.3933 66.6076 67.5753 66.742 67.7094C66.8764 67.8436 67.0587 67.9189 67.2488 67.9189H70.1155C70.3055 67.9189 70.4878 67.8436 70.6222 67.7094C70.7566 67.5753 70.8321 67.3933 70.8321 67.2036V64.6929C71.0471 64.6164 71.2577 64.528 71.4628 64.4282L73.2401 66.2093C73.3755 66.3434 73.5584 66.4186 73.749 66.4186C73.9396 66.4186 74.1225 66.3434 74.2578 66.2093L76.286 64.185C76.4203 64.0499 76.4956 63.8674 76.4956 63.6771C76.4956 63.4869 76.4203 63.3043 76.286 63.1693L74.5015 61.3953C74.6015 61.1905 74.69 60.9804 74.7667 60.7658H77.2822C77.4722 60.7658 77.6545 60.6904 77.7889 60.5563C77.9233 60.4221 77.9988 60.2402 77.9988 60.0505V57.1892C77.9988 56.9995 77.9233 56.8176 77.7889 56.6834C77.6545 56.5493 77.4722 56.4739 77.2822 56.4739ZM66.5465 35.2576C66.8121 34.7947 66.9717 34.2788 67.0138 33.747C67.0559 33.2152 66.9795 32.6806 66.7901 32.1818C66.4837 31.3469 66.4453 30.4375 66.6802 29.5799C66.9152 28.7222 67.4119 27.9589 68.1013 27.3958C68.7907 26.8327 69.6387 26.4978 70.5274 26.4377C71.4162 26.3775 72.3017 26.5951 73.061 27.0601C73.9946 27.6342 74.6752 28.5406 74.9652 29.5961C75.2552 30.6517 75.133 31.7778 74.6233 32.7469C74.3207 33.3163 73.8926 33.8099 73.3712 34.1903C72.8498 34.5706 72.2488 34.828 71.6133 34.9429C71.0823 35.0301 70.5766 35.2313 70.1311 35.5326C69.6857 35.834 69.3111 36.2283 69.0333 36.6883L66.6898 40.737H63.3788L66.5465 35.2576ZM72.6238 42.1676L75.8488 46.4595H61.1571L57.9321 42.1676H72.6238ZM56.1906 26.4306H56.8069L58.4624 29.1846L57.4233 30.2147C57.2913 30.3511 57.2168 30.5329 57.2154 30.7225V37.8757H55.7821V30.7225C55.7807 30.5329 55.7063 30.3511 55.5743 30.2147L54.5351 29.1846L56.1906 26.4306ZM44.8601 37.003C44.571 36.4876 44.1572 36.0526 43.6565 35.7377C43.1557 35.4228 42.584 35.2381 41.9934 35.2004C41.3285 35.1739 40.6789 34.9937 40.0956 34.6741C39.5124 34.3545 39.0114 33.9041 38.6321 33.3584C38.2528 32.8127 38.0055 32.1867 37.9098 31.5294C37.8141 30.8722 37.8725 30.2018 38.0804 29.5709L39.6786 32.3463C39.7382 32.4491 39.8224 32.5356 39.9237 32.598C40.025 32.6604 40.1402 32.6968 40.2591 32.704L42.8391 32.8685C42.9806 32.8771 43.1215 32.8437 43.2439 32.7724C43.3664 32.7011 43.4649 32.5951 43.5271 32.4679L44.6737 30.1574C44.7234 30.0516 44.7473 29.9355 44.7436 29.8187C44.7398 29.7018 44.7085 29.5875 44.6522 29.485L43.0469 26.7096C43.649 26.8358 44.2169 27.0895 44.7124 27.4536C45.2078 27.8176 45.6192 28.2836 45.9188 28.8199C46.2184 29.3563 46.3992 29.9505 46.449 30.5626C46.4988 31.1746 46.4164 31.7902 46.2074 32.3678C46.0188 32.8677 45.9422 33.4028 45.983 33.9354C46.0239 34.4681 46.1812 34.9853 46.4439 35.4508L49.5041 40.737H47.0172L44.8601 37.003ZM37.1487 46.4595L40.3737 42.1676H55.0654L51.8404 46.4595H37.1487ZM55.7821 63.6271H40.7321V47.8901H52.1988C52.3099 47.8893 52.4193 47.8632 52.5187 47.8136C52.6181 47.764 52.7048 47.6923 52.7721 47.604L55.7821 43.5982V63.6271ZM54.3488 40.737V39.3063H58.6488V40.737H54.3488ZM61.0783 63.1693C60.9616 63.2949 60.8909 63.4562 60.8776 63.6271H57.2154V43.5982L60.2254 47.604C60.2927 47.6923 60.3794 47.764 60.4788 47.8136C60.5782 47.8632 60.6877 47.8893 60.7988 47.8901H72.2655V52.0103L71.4628 52.8115C71.2577 52.7117 71.0471 52.6233 70.8321 52.5468V50.0361C70.8321 49.8463 70.7566 49.6644 70.6222 49.5303C70.4878 49.3961 70.3055 49.3207 70.1155 49.3207H67.2488C67.0587 49.3207 66.8764 49.3961 66.742 49.5303C66.6076 49.6644 66.5321 49.8463 66.5321 50.0361V52.5468C66.3172 52.6233 66.1066 52.7117 65.9015 52.8115L64.1241 51.0303C63.9888 50.8963 63.8059 50.8211 63.6153 50.8211C63.4247 50.8211 63.2418 50.8963 63.1065 51.0303L61.0783 53.0547C60.944 53.1897 60.8687 53.3723 60.8687 53.5626C60.8687 53.7528 60.944 53.9354 61.0783 54.0704L62.8628 55.8444C62.7628 56.0492 62.6742 56.2593 62.5976 56.4739H60.0821C59.892 56.4739 59.7097 56.5493 59.5753 56.6834C59.4409 56.8176 59.3654 56.9995 59.3654 57.1892V60.0505C59.3654 60.2402 59.4409 60.4221 59.5753 60.5563C59.7097 60.6904 59.892 60.7658 60.0821 60.7658H62.5976C62.6742 60.9804 62.7628 61.1905 62.8628 61.3953L61.0783 63.1693ZM76.5655 59.3352H74.2363C74.0772 59.3349 73.9226 59.3875 73.7967 59.4846C73.6708 59.5817 73.5809 59.7179 73.5411 59.8716C73.4258 60.3224 73.2447 60.7538 73.0036 61.1521C72.9231 61.2904 72.8901 61.4512 72.9095 61.61C72.9289 61.7688 72.9997 61.9169 73.1111 62.0319L74.7667 63.6771L73.749 64.6929L72.1006 63.0405C71.9855 62.9292 71.837 62.8586 71.6779 62.8392C71.5188 62.8198 71.3577 62.8528 71.2191 62.9332C70.8202 63.1738 70.3879 63.3545 69.9363 63.4697C69.7823 63.5094 69.6458 63.5991 69.5485 63.7247C69.4512 63.8504 69.3985 64.0047 69.3988 64.1635V66.4883H67.9655V64.1635C67.9657 64.0047 67.9131 63.8504 67.8158 63.7247C67.7184 63.5991 67.582 63.5094 67.428 63.4697C66.9763 63.3545 66.5441 63.1738 66.1451 62.9332C66.0065 62.8528 65.8454 62.8198 65.6863 62.8392C65.5272 62.8586 65.3788 62.9292 65.2636 63.0405L63.6153 64.6929L62.5976 63.6771L64.2531 62.0319C64.3646 61.9169 64.4354 61.7688 64.4548 61.61C64.4742 61.4512 64.4411 61.2904 64.3606 61.1521C64.1196 60.7538 63.9385 60.3224 63.8231 59.8716C63.7833 59.7179 63.6934 59.5817 63.5676 59.4846C63.4417 59.3875 63.2871 59.3349 63.128 59.3352H60.7988V57.9045H63.128C63.2871 57.9048 63.4417 57.8522 63.5676 57.7551C63.6934 57.658 63.7833 57.5218 63.8231 57.368C63.9385 56.9173 64.1196 56.4858 64.3606 56.0876C64.4411 55.9493 64.4742 55.7885 64.4548 55.6297C64.4354 55.4709 64.3646 55.3228 64.2531 55.2078L62.5976 53.5626L63.6153 52.5468L65.2636 54.1992C65.3788 54.3104 65.5272 54.3811 65.6863 54.4005C65.8454 54.4198 66.0065 54.3868 66.1451 54.3065C66.5441 54.0659 66.9763 53.8851 67.428 53.77C67.582 53.7303 67.7184 53.6406 67.8158 53.5149C67.9131 53.3893 67.9657 53.2349 67.9655 53.0761V50.7514H69.3988V53.0761C69.3985 53.2349 69.4512 53.3893 69.5485 53.5149C69.6458 53.6406 69.7823 53.7303 69.9363 53.77C70.3879 53.8851 70.8202 54.0659 71.2191 54.3065C71.3577 54.3868 71.5188 54.4198 71.6779 54.4005C71.837 54.3811 71.9855 54.3104 72.1006 54.1992L73.749 52.5468L74.7667 53.5626L73.1111 55.2078C72.9997 55.3228 72.9289 55.4709 72.9095 55.6297C72.8901 55.7885 72.9231 55.9493 73.0036 56.0876C73.2447 56.4858 73.4258 56.9173 73.5411 57.368C73.5809 57.5218 73.6708 57.658 73.7967 57.7551C73.9226 57.8522 74.0772 57.9048 74.2363 57.9045H76.5655V59.3352Z" fill="white"/>
<path d="M68.6821 55.0435C67.9734 55.0435 67.2806 55.2532 66.6913 55.6462C66.1021 56.0392 65.6428 56.5977 65.3716 57.2512C65.1003 57.9047 65.0294 58.6238 65.1676 59.3176C65.3059 60.0114 65.6472 60.6486 66.1483 61.1488C66.6495 61.649 67.288 61.9896 67.9831 62.1276C68.6782 62.2656 69.3986 62.1947 70.0534 61.924C70.7082 61.6534 71.2678 61.195 71.6616 60.6068C72.0553 60.0187 72.2655 59.3272 72.2655 58.6199C72.2643 57.6717 71.8864 56.7627 71.2147 56.0922C70.5429 55.4218 69.6321 55.0446 68.6821 55.0435ZM68.6821 60.7657C68.2569 60.7657 67.8412 60.6399 67.4877 60.4041C67.1341 60.1683 66.8585 59.8332 66.6958 59.4411C66.5331 59.0489 66.4905 58.6175 66.5734 58.2012C66.6564 57.785 66.8612 57.4026 67.1618 57.1025C67.4625 56.8024 67.8456 56.5981 68.2627 56.5153C68.6797 56.4325 69.112 56.475 69.5049 56.6374C69.8978 56.7998 70.2335 57.0748 70.4698 57.4277C70.706 57.7806 70.8321 58.1955 70.8321 58.6199C70.8321 59.189 70.6056 59.7348 70.2024 60.1372C69.7992 60.5396 69.2523 60.7657 68.6821 60.7657Z" fill="white"/>
<path d="M43.5987 58.6196H42.8821C42.692 58.6196 42.5097 58.6951 42.3753 58.8294C42.2409 58.9636 42.1654 59.1458 42.1654 59.3357C42.1654 59.5256 42.2409 59.7077 42.3753 59.842C42.5097 59.9763 42.692 60.0518 42.8821 60.0518H43.5987C43.7888 60.0518 43.9711 59.9763 44.1055 59.842C44.2399 59.7077 44.3154 59.5256 44.3154 59.3357C44.3154 59.1458 44.2399 58.9636 44.1055 58.8294C43.9711 58.6951 43.7888 58.6196 43.5987 58.6196Z" fill="white"/>
<path d="M43.5987 60.7661H42.8821C42.692 60.7661 42.5097 60.8415 42.3753 60.9756C42.2409 61.1097 42.1654 61.2915 42.1654 61.4812C42.1654 61.6709 42.2409 61.8527 42.3753 61.9868C42.5097 62.121 42.692 62.1963 42.8821 62.1963H43.5987C43.7888 62.1963 43.9711 62.121 44.1055 61.9868C44.2399 61.8527 44.3154 61.6709 44.3154 61.4812C44.3154 61.2915 44.2399 61.1097 44.1055 60.9756C43.9711 60.8415 43.7888 60.7661 43.5987 60.7661Z" fill="white"/>
<path d="M50.0487 58.6196H45.7487C45.5587 58.6196 45.3764 58.6951 45.242 58.8294C45.1076 58.9636 45.0321 59.1458 45.0321 59.3357C45.0321 59.5256 45.1076 59.7077 45.242 59.842C45.3764 59.9763 45.5587 60.0518 45.7487 60.0518H50.0487C50.2388 60.0518 50.4211 59.9763 50.5555 59.842C50.6899 59.7077 50.7654 59.5256 50.7654 59.3357C50.7654 59.1458 50.6899 58.9636 50.5555 58.8294C50.4211 58.6951 50.2388 58.6196 50.0487 58.6196Z" fill="white"/>
<path d="M43.5987 56.4741H42.8821C42.692 56.4741 42.5097 56.5495 42.3753 56.6838C42.2409 56.818 42.1654 57.0001 42.1654 57.1899C42.1654 57.3798 42.2409 57.5619 42.3753 57.6961C42.5097 57.8303 42.692 57.9058 42.8821 57.9058H43.5987C43.7888 57.9058 43.9711 57.8303 44.1055 57.6961C44.2399 57.5619 44.3154 57.3798 44.3154 57.1899C44.3154 57.0001 44.2399 56.818 44.1055 56.6838C43.9711 56.5495 43.7888 56.4741 43.5987 56.4741Z" fill="white"/>
<path d="M50.0487 56.4741H45.7487C45.5587 56.4741 45.3764 56.5495 45.242 56.6838C45.1076 56.818 45.0321 57.0001 45.0321 57.1899C45.0321 57.3798 45.1076 57.5619 45.242 57.6961C45.3764 57.8303 45.5587 57.9058 45.7487 57.9058H50.0487C50.2388 57.9058 50.4211 57.8303 50.5555 57.6961C50.6899 57.5619 50.7654 57.3798 50.7654 57.1899C50.7654 57.0001 50.6899 56.818 50.5555 56.6838C50.4211 56.5495 50.2388 56.4741 50.0487 56.4741Z" fill="white"/>
<path d="M50.0487 60.7661H45.7487C45.5587 60.7661 45.3764 60.8415 45.242 60.9756C45.1076 61.1097 45.0321 61.2915 45.0321 61.4812C45.0321 61.6709 45.1076 61.8527 45.242 61.9868C45.3764 62.121 45.5587 62.1963 45.7487 62.1963H50.0487C50.2388 62.1963 50.4211 62.121 50.5555 61.9868C50.6899 61.8527 50.7654 61.6709 50.7654 61.4812C50.7654 61.2915 50.6899 61.1097 50.5555 60.9756C50.4211 60.8415 50.2388 60.7661 50.0487 60.7661Z" fill="white"/>
<defs>
<filter id="filter0_d_15_286" x="0" y="0" width="113" height="113" filterUnits="userSpaceOnUse" color-interpolation-filters="sRGB">
<feFlood flood-opacity="0" result="BackgroundImageFix"/>
<feColorMatrix in="SourceAlpha" type="matrix" values="0 0 0 0 0 0 0 0 0 0 0 0 0 0 0 0 0 0 127 0" result="hardAlpha"/>
<feOffset dy="11"/>
<feGaussianBlur stdDeviation="9"/>
<feColorMatrix type="matrix" values="0 0 0 0 0 0 0 0 0 0 0 0 0 0 0 0 0 0 0.04 0"/>
<feBlend mode="normal" in2="BackgroundImageFix" result="effect1_dropShadow_15_286"/>
<feBlend mode="normal" in="SourceGraphic" in2="effect1_dropShadow_15_286" result="shape"/>
</filter>
</defs>
</svg>
