<svg width="113" height="113" viewBox="0 0 113 113" fill="none" xmlns="http://www.w3.org/2000/svg">
<g filter="url(#filter0_d_15_83)">
<circle cx="56.5" cy="45.5" r="38.5" fill="#E4A518" fill-opacity="0.78"/>
</g>
<path d="M51.2292 45.2002H52.8323V46.8005H51.2292V45.2002Z" fill="white"/>
<path d="M60.8477 45.2002H62.4508V46.8005H60.8477V45.2002Z" fill="white"/>
<path d="M56.0384 49.8843V50.8003H57.6415V49.8843C58.5307 49.6081 59.1624 48.8202 59.2368 47.8937C59.3111 46.9671 58.8137 46.0886 57.9797 45.6746L56.4177 44.8949C56.1335 44.7531 55.9844 44.4355 56.0572 44.127C56.13 43.8188 56.4056 43.6008 56.723 43.6004H56.957C57.3347 43.6008 57.6411 43.9066 57.6415 44.2836V44.4004H59.2446V44.2836C59.2411 43.2895 58.5922 42.4125 57.6415 42.1164V41.2004H56.0384V42.1164C55.1492 42.3926 54.5176 43.1805 54.4432 44.107C54.3688 45.0336 54.8663 45.9121 55.7003 46.3261L57.2623 47.1058C57.5464 47.2476 57.6955 47.5652 57.6227 47.8738C57.5499 48.182 57.2744 48.3999 56.957 48.4003H56.723C56.3453 48.3999 56.0388 48.0941 56.0384 47.7171V47.6003H54.4354V47.7171C54.4389 48.7113 55.0878 49.5882 56.0384 49.8843Z" fill="white"/>
<path d="M56.84 55.6006C62.1522 55.6006 66.4585 51.3024 66.4585 46.0004C66.4585 40.6983 62.1522 36.4001 56.84 36.4001C51.5279 36.4001 47.2216 40.6983 47.2216 46.0004C47.2274 51.3001 51.5302 55.5947 56.84 55.6006ZM56.84 38.0002C61.2669 38.0002 64.8554 41.5819 64.8554 46.0004C64.8554 50.4188 61.2669 54.0005 56.84 54.0005C52.4132 54.0005 48.8246 50.4188 48.8246 46.0004C48.8293 41.5839 52.4151 38.0049 56.84 38.0002Z" fill="white"/>
<path d="M36 35.5999H37.6031V37.2002H36V35.5999Z" fill="white"/>
<path d="M41.6108 26H43.2139V27.6001H41.6108V26Z" fill="white"/>
<path d="M39.2061 29.2H48.0231V30.8003H39.2061V29.2Z" fill="white"/>
<path d="M37.6031 32.3999H46.42V34H37.6031V32.3999Z" fill="white"/>
<path d="M38.6449 60.4008L41.9841 56.4007H49.3905C53.8381 59.6008 59.8387 59.6008 64.2863 56.4007H74.4738V54.8007H66.1289C70.843 49.8771 70.843 42.1238 66.1289 37.2003H72.0692C72.3068 37.2003 72.5326 37.0952 72.6848 36.9132L76.6925 32.113C76.9411 31.8162 76.9411 31.3841 76.6925 31.0872L72.6848 26.2871C72.5326 26.1051 72.3068 26 72.0692 26H44.8169V27.6H71.6943L75.035 31.6001L71.6958 35.6002H64.2894C59.8418 32.4002 53.8412 32.4002 49.3937 35.6002H39.2061V37.2003H47.5511C42.8369 42.1238 42.8369 49.8771 47.5511 54.8007H41.6107C41.3732 54.8007 41.1474 54.9058 40.9951 55.0878L36.9874 59.8879C36.7389 60.1848 36.7389 60.6169 36.9874 60.9137L40.9951 65.7139C41.1474 65.8959 41.3732 66.001 41.6107 66.001H68.863V64.4009H41.9857L38.6449 60.4008ZM56.84 34.8002C63.0374 34.8002 68.0615 39.8148 68.0615 46.0005C68.0615 52.1862 63.0374 57.2008 56.84 57.2008C50.6425 57.2008 45.6184 52.1862 45.6184 46.0005C45.6251 39.8175 50.6453 34.8069 56.84 34.8002Z" fill="white"/>
<path d="M76.0769 54.8005H77.68V56.4006H76.0769V54.8005Z" fill="white"/>
<path d="M70.4662 64.4011H72.0692V66.001H70.4662V64.4011Z" fill="white"/>
<path d="M65.6569 61.2009H74.4738V62.8013H65.6569V61.2009Z" fill="white"/>
<path d="M67.26 58.0007H76.0769V59.6006H67.26V58.0007Z" fill="white"/>
<defs>
<filter id="filter0_d_15_83" x="0" y="0" width="113" height="113" filterUnits="userSpaceOnUse" color-interpolation-filters="sRGB">
<feFlood flood-opacity="0" result="BackgroundImageFix"/>
<feColorMatrix in="SourceAlpha" type="matrix" values="0 0 0 0 0 0 0 0 0 0 0 0 0 0 0 0 0 0 127 0" result="hardAlpha"/>
<feOffset dy="11"/>
<feGaussianBlur stdDeviation="9"/>
<feColorMatrix type="matrix" values="0 0 0 0 0 0 0 0 0 0 0 0 0 0 0 0 0 0 0.04 0"/>
<feBlend mode="normal" in2="BackgroundImageFix" result="effect1_dropShadow_15_83"/>
<feBlend mode="normal" in="SourceGraphic" in2="effect1_dropShadow_15_83" result="shape"/>
</filter>
</defs>
</svg>
